# xmcd
#
# Track frame offsets:
#	150
#	16977
#	33252
#	52734
#	71178
#	86795
#	106436
#	120891
#	142188
#	162593
#	187622
#	208137
#
# Disc length: 3068 seconds
#
# Revision: 1
# Processed by: cddbd v1.5.2PL0 Copyright (c) Steve Scherf et al.
# Submitted via: audiograbber 1.83.01
#
DISCID=a10bfa0c
DTITLE=Afel Bocoum and Alkibar - Tabital Pulaaku
DYEAR=1900
DGENRE=
TTITLE0=Mali Men
TTITLE1=Tapital Pulaaka
TTITLE2=Immigration
TTITLE3=Soko Sondu
TTITLE4=Sambe Sambe
TTITLE5=Diadie
TTITLE6=Allah Tanu
TTITLE7=Fina Tawa
TTITLE8=Gando
TTITLE9=Hassey
TTITLE10=Waaju
TTITLE11=Turi Gna
EXTD=
EXTT0=
EXTT1=
EXTT2=
EXTT3=
EXTT4=
EXTT5=
EXTT6=
EXTT7=
EXTT8=
EXTT9=
EXTT10=
EXTT11=
PLAYORDER=
